<?xml version="1.0" encoding="utf-8"?>
<?xml-stylesheet type="text/xsl" href="rss1.xsl"?>
<rss version="2.0" xmlns:atom="http://www.w3.org/2005/Atom" xmlns:content="http://purl.org/rss/1.0/modules/content/" xmlns:dc="http://purl.org/dc/elements/1.1/" xmlns:media="http://search.yahoo.com/mrss/">
<channel>
 <title>Getty</title>
 <link>http://www.gettyimg.com/</link>
 <atom:link href="http://www.gettyimg.com/" rel="self" type="application/rss+xml" />

 
                <item>
                <title><![CDATA[【Requests】[REQ AUD] - Taylor Swift - The Tortured Poets Department bonus tracks - FLAC]]></title>
                <link><![CDATA[https://sharemania.us/threads/taylor-swift-the-tortured-poets-department-bonus-tracks-flac.245617/]]></link>
                <description><![CDATA[<article>
<blockquote class="messageText SelectQuoteContainer ugc baseHtml">
Does anyone have these in uncompressed flac?<br>
<br>
"Who's Afraid of Little Old Me? (First Draft Phone Memo)" bonus track<br>
"Cassandra (First Draft Phone Memo)" bonus track <br>
"The Black Dog (First Draft Phone Memo)" bonus track <br>
"Loml (Live from Paris)" bonus track<br>
"My Boy Only Breaks His Favorite Toys (Live from Paris)" bonus track <br>
"The Alchemy x Treacherous Mashup (Live from Paris)" bonus track <br>
"But Daddy I Love Him" acoustic bonus trac<br>
<br>
<br>
Thanks.
<div class="messageTextEndMarker">&nbsp;</div>
</blockquote>
</article>]]></description>
                <author><![CDATA[waymon]]></author>
                </item>

                
                <item>
                <title><![CDATA[【Cinema Center】MOVIE - Waxwork.1988.1080p.ROKU.WEB-DL.AAC2.0.H.264-Samuel]]></title>
                <link><![CDATA[https://sharemania.us/threads/waxwork-1988-1080p-roku-web-dl-aac2-0-h-264-samuel.245616/]]></link>
                <description><![CDATA[<article>
<blockquote class="messageText SelectQuoteContainer ugc baseHtml">
<div style="text-align: center"><b><span style="font-size: 26px">Waxwork</span></b><br>
<img src="https://i.imgur.com/cVK5Kix.jpeg" class="bbCodeImage LbImage" alt="[​IMG]" data-url="https://i.imgur.com/cVK5Kix.jpeg" style=""><br>
<b><a href="https://i.imgur.com/vyACJ87.jpeg" target="_blank" class="externalLink" rel="nofollow">Alternate Artwork</a></b> | <b><a href="https://i.imgur.com/RSBvRdX.jpeg" target="_blank" class="externalLink" rel="nofollow">Poster 1</a></b> | <b><a href="https://i.imgur.com/JqOVhvi.jpeg" target="_blank" class="externalLink" rel="nofollow">Poster 2</a></b> | <b><a href="https://i.imgur.com/kJZDIci.jpeg" target="_blank" class="externalLink" rel="nofollow">Background Art</a></b><br>
<br>
1988 | R | Horror • Comedy<br>
Zach Galligan, Deborah Foreman, Michelle Johnson<br>
<b>Directed By:</b> Anthony Hickox<br>
<br>
<div class="bbCodeBlock bbCodeQuote">
<aside>
<blockquote class="quoteContainer"><div class="quote"><b><span style="font-size: 15px">Description</span></b><br>
College students (Zach Galligan, Deborah Foreman, Michelle Johnson) trapped in a wax museum meet Count Dracula and the Marquis de Sade.</div><div class="quoteExpand">Click to expand...</div></blockquote>
</aside>
</div>
<div class="bbCodeBlock bbCodeQuote">
<aside>
<blockquote class="quoteContainer"><div class="quote"><b><span style="font-size: 15px">More Information</span></b><br>
<b>Cast:</b> Zach Galligan, Deborah Foreman, Michelle Johnson, David Warner, Patrick Macnee, Dana Ashbrook, Miles O'Keeffe, Charles McCaughan, J. Campbell, John Rhys-Davies<br>
<b>Directors:</b> Anthony Hickox<br>
<br>
<b>Captions:</b> English [Closed caption]<br>
<b>Audio track:</b> English (Original)</div><div class="quoteExpand">Click to expand...</div></blockquote>
</aside>
</div>
<div class="bbCodeBlock bbCodeQuote">
<aside>
<blockquote class="quoteContainer"><div class="quote"><span style="font-size: 15px"><b>Source</b></span><br>
<img src="https://i.imgur.com/sxdbEA9.png" class="bbCodeImage LbImage" alt="[​IMG]" data-url="https://i.imgur.com/sxdbEA9.png" style=""></div><div class="quoteExpand">Click to expand...</div></blockquote>
</aside>
</div>
<div class="bbCodeBlock bbCodeQuote">
<aside>
<blockquote class="quoteContainer"><div class="quote"><b><span style="font-size: 15px">Release Name</span></b><br>
Waxwork.1988.1080p.ROKU.WEB-DL.AAC2.0.H.264-Samuel</div><div class="quoteExpand">Click to expand...</div></blockquote>
</aside>
</div>
<div class="ToggleTriggerAnchor bbCodeSpoilerContainer">
<button type="button" class="button bbCodeSpoilerButton ToggleTrigger Tooltip JsOnly" data-target="> .SpoilerTarget"><span>Spoiler: <span class="SpoilerTitle">Media Information</span></span></button>
<div class="SpoilerTarget bbCodeSpoilerText">General<br>
Complete name : Waxwork.1988.1080p.ROKU.WEB-DL.AAC2.0.H.264-Samuel.mkv<br>
Format : Matroska<br>
Format version : Version 4<br>
File size : 3.75 GiB<br>
Duration : 1 h 37 min<br>
Overall bit rate mode : Variable<br>
Overall bit rate : 5 529 kb/s<br>
Frame rate : 23.976 FPS<br>
Encoded date : 2024-05-28 17:29:18 UTC<br>
Writing application : mkvmerge v84.0 ('Sleeper') 64-bit<br>
Writing library : libebml v1.4.5 + libmatroska v1.7.1<br>
<br>
Video<br>
ID : 1<br>
Format : AVC<br>
Format/Info : Advanced Video Codec<br>
Format profile : High@L4<br>
Format settings : CABAC / 3 Ref Frames<br>
Format settings, CABAC : Yes<br>
Format settings, Reference frames : 3 frames<br>
Codec ID : V_MPEG4/ISO/AVC<br>
Duration : 1 h 37 min<br>
Bit rate mode : Variable<br>
Bit rate : 5 399 kb/s<br>
Maximum bit rate : 5 495 kb/s<br>
Width : 1 920 pixels<br>
Height : 1 080 pixels<br>
Display aspect ratio : 16:9<br>
Frame rate mode : Constant<br>
Frame rate : 23.976 (24000/1001) FPS<br>
Color space : YUV<br>
Chroma subsampling : 4:2:0<br>
Bit depth : 8 bits<br>
Scan type : Progressive<br>
Bits/(Pixel*Frame) : 0.109<br>
Stream size : 3.66 GiB (98%)<br>
Default : Yes<br>
Forced : No<br>
<br>
Audio<br>
ID : 2<br>
Format : AAC LC SBR<br>
Format/Info : Advanced Audio Codec Low Complexity with Spectral Band Replication<br>
Commercial name : HE-AAC<br>
Format settings : Explicit<br>
Codec ID : A_AAC-2<br>
Duration : 1 h 37 min<br>
Bit rate : 128 kb/s<br>
Channel(s) : 2 channels<br>
Channel layout : L R<br>
Sampling rate : 48.0 kHz<br>
Frame rate : 23.438 FPS (2048 SPF)<br>
Compression mode : Lossy<br>
Stream size : 88.9 MiB (2%)<br>
Language : English<br>
Default : Yes<br>
Forced : No<br>
<br>
Text<br>
ID : 3<br>
Format : UTF-8<br>
Codec ID : S_TEXT/UTF8<br>
Codec ID/Info : UTF-8 Plain Text<br>
Duration : 1 h 36 min<br>
Bit rate : 42 b/s<br>
Frame rate : 0.195 FPS<br>
Count of elements : 1132<br>
Stream size : 30.4 KiB (0%)<br>
Title : SDH<br>
Language : English<br>
Default : No<br>
Forced : No</div>
</div><br>
<b>Screenshots</b><br>
<img src="https://i.imgur.com/3DAdqrI.png" class="bbCodeImage LbImage" alt="[​IMG]" data-url="https://i.imgur.com/3DAdqrI.png" style=""><br>
<br>
<b>Download</b><br>
<div class="bbCodeBlock bbCodeVfcHH HiddenContent">
<div class="attribution type">Hidden Content:</div>
<blockquote>You must reply before you can see the hidden data contained here.</blockquote>
</div></div>
<div class="messageTextEndMarker">&nbsp;</div>
</blockquote>
</article>]]></description>
                <author><![CDATA[Samuel]]></author>
                </item>

                </channel></rss>